<?xml version="1.0" standalone="no"?>
<!DOCTYPE svg PUBLIC "-//W3C//DTD SVG 20010904//EN"
 "http://www.w3.org/TR/2001/REC-SVG-20010904/DTD/svg10.dtd">
<svg version="1.0" xmlns="http://www.w3.org/2000/svg"
 width="700.000000pt" height="700.000000pt" viewBox="0 0 700.000000 700.000000"
 preserveAspectRatio="xMidYMid meet">
<metadata>
Created by potrace 1.14, written by Peter Selinger 2001-2017
</metadata>
<g transform="translate(0.000000,700.000000) scale(0.100000,-0.100000)"
fill="#000000" stroke="none">
<path d="M2867 6504 c-1 -1 -27 -4 -57 -7 -177 -19 -369 -128 -486 -275 -48
-60 -111 -180 -126 -241 -5 -20 -14 -54 -20 -76 -17 -66 -12 -240 11 -328 22
-83 81 -205 133 -272 17 -22 59 -64 93 -94 151 -131 320 -192 515 -185 52 2
104 5 115 8 273 59 484 247 565 502 30 95 34 124 34 239 -1 109 -19 192 -62
290 -98 223 -320 393 -562 431 -30 5 -149 11 -153 8z"/>
<path d="M4509 5890 c-44 -13 -101 -57 -130 -101 -103 -152 14 -371 198 -370
141 0 244 103 245 243 0 98 -65 190 -159 224 -42 15 -114 17 -154 4z"/>
<path d="M1465 5395 c-106 -17 -172 -42 -260 -100 -122 -81 -215 -203 -258
-340 -31 -98 -30 -291 1 -382 72 -205 223 -352 431 -420 67 -22 242 -26 319
-8 197 46 357 179 442 368 67 149 70 329 8 487 -108 275 -395 442 -683 395z"/>
<path d="M3310 4840 c-44 -13 -321 -212 -336 -241 -34 -66 -4 -158 61 -185 48
-20 75 -18 129 11 l46 24 0 -212 c0 -182 2 -217 18 -246 20 -41 56 -70 97 -77
39 -7 105 20 130 54 19 26 20 43 20 414 l0 386 -25 27 c-38 41 -94 59 -140 45z"/>
<path d="M5740 4807 c-31 -5 -77 -23 -107 -43 -172 -110 -196 -342 -49 -485
197 -192 532 -43 521 231 -6 164 -109 274 -285 303 -14 2 -50 0 -80 -6z"/>
<path d="M2393 4775 c-26 -12 -60 -35 -75 -51 -53 -58 -57 -82 -58 -359 0
-143 4 -272 9 -293 15 -53 65 -109 123 -137 45 -22 62 -24 199 -24 82 0 164 5
182 11 53 18 108 68 133 122 23 49 24 59 24 311 0 252 -1 262 -24 311 -28 61
-83 108 -143 124 -25 6 -107 10 -183 9 -121 -1 -144 -4 -187 -24z m268 -280
c0 -19 0 -73 0 -120 0 -47 0 -110 0 -140 l-1 -55 -65 0 c-55 0 -65 3 -66 18
-1 22 -1 326 0 330 1 1 30 2 66 2 l65 0 1 -35z"/>
<path d="M3795 4793 c-48 -13 -110 -66 -138 -118 -21 -38 -22 -52 -22 -320 0
-256 2 -283 19 -315 26 -49 69 -88 121 -110 60 -26 315 -27 379 -3 53 20 101
66 127 120 19 40 21 61 21 291 0 137 -3 264 -7 283 -9 43 -42 98 -74 124 -59
47 -70 49 -241 51 -91 1 -174 -1 -185 -3z m239 -435 l0 -173 -67 -3 -67 -3 0
176 0 175 68 0 67 0 -1 -172z"/>
<path d="M4555 4785 c-52 -20 -103 -69 -127 -123 -17 -38 -19 -67 -19 -306 0
-220 3 -271 16 -303 21 -50 60 -90 115 -118 41 -21 59 -23 200 -24 171 0 209
9 268 66 66 63 67 69 67 379 l0 281 -30 49 c-17 27 -51 62 -75 79 l-45 30
-165 2 c-127 2 -174 -1 -205 -12z m255 -430 l0 -175 -68 0 -67 0 1 173 c1 94
2 173 3 175 0 1 30 2 66 2 l65 0 0 -175z"/>
<path d="M2635 3757 c-34 -13 -267 -173 -303 -207 -45 -43 -54 -105 -22 -157
42 -69 111 -87 185 -47 25 13 47 24 48 24 1 0 2 -98 3 -218 0 -249 5 -266 76
-301 70 -33 134 -14 174 54 16 27 18 63 18 395 0 317 -3 369 -17 396 -30 58
-102 85 -162 61z"/>
<path d="M4050 3757 c-19 -7 -57 -28 -84 -47 -26 -19 -89 -64 -140 -100 -95
-68 -120 -101 -119 -157 3 -112 137 -168 226 -94 9 8 19 12 22 10 2 -3 5 -102
5 -221 1 -235 6 -255 66 -294 36 -24 107 -23 142 2 61 46 62 53 62 450 -1 336
-2 362 -20 392 -36 59 -95 81 -160 59z"/>
<path d="M4713 3686 c-187 -127 -201 -139 -219 -178 -24 -54 -3 -133 44 -160
51 -31 93 -32 145 -4 26 14 49 26 51 26 1 0 2 -96 2 -213 1 -248 7 -273 77
-306 64 -30 126 -14 168 42 l24 32 0 375 c0 371 -1 376 -22 406 -13 18 -37 39
-56 47 -59 29 -87 20 -214 -67z"/>
<path d="M3200 3740 c-84 -15 -151 -74 -175 -154 -19 -61 -21 -491 -4 -561 14
-57 76 -128 131 -150 51 -20 324 -24 373 -5 60 23 105 62 131 116 26 53 26 54
26 311 1 220 -2 264 -16 297 -26 62 -61 102 -112 127 -41 19 -64 22 -183 24
-75 0 -152 -2 -171 -5z m213 -274 c2 -10 1 -286 -2 -326 -1 -13 -14 -16 -63
-15 l-63 0 -5 65 c-3 36 -4 115 -2 176 l3 112 64 -1 c36 0 66 -5 68 -11z"/>
<path d="M1055 3649 c-88 -18 -191 -75 -259 -143 -208 -210 -208 -532 -1 -740
106 -107 235 -157 390 -151 163 5 313 88 404 220 66 97 91 174 95 292 10 276
-212 515 -491 528 -49 2 -110 -1 -138 -6z"/>
<path d="M5870 3191 c-171 -61 -263 -194 -256 -374 3 -101 36 -176 105 -245
206 -204 547 -115 627 163 33 117 1 258 -78 346 -104 114 -263 158 -398 110z"/>
<path d="M3345 2818 c-11 -6 -84 -56 -163 -110 -140 -98 -159 -117 -169 -176
-6 -39 16 -91 52 -118 44 -33 115 -35 156 -5 16 12 32 21 37 21 5 0 9 -84 10
-187 0 -104 1 -205 1 -225 1 -27 10 -47 31 -72 62 -70 168 -62 216 18 17 29
18 58 19 402 0 339 -2 373 -18 398 -37 56 -121 83 -172 54z"/>
<path d="M2395 2800 c-58 -15 -81 -28 -117 -68 -58 -64 -62 -87 -62 -372 1
-234 2 -259 21 -300 11 -25 33 -58 49 -73 56 -56 76 -62 248 -65 179 -4 222 5
281 62 68 66 69 73 71 361 2 301 -3 329 -67 394 -57 57 -111 71 -268 70 -69
-1 -139 -5 -156 -9z m225 -435 l0 -175 -68 0 -67 0 0 175 0 175 67 0 68 0 0
-175z"/>
<path d="M3841 2775 c-24 -7 -61 -31 -82 -51 -67 -65 -72 -90 -72 -381 -1
-240 1 -261 20 -305 21 -47 60 -88 110 -116 35 -20 308 -30 370 -13 63 17 118
63 146 122 24 51 24 54 23 323 -1 210 -5 277 -15 296 -31 55 -65 90 -111 113
-43 22 -61 24 -196 25 -103 1 -163 -3 -193 -13z m249 -430 l0 -175 -68 0 -68
0 0 175 0 175 68 0 68 0 0 -175z"/>
<path d="M4617 2776 c-57 -21 -103 -61 -128 -113 -23 -47 -24 -54 -24 -324 l0
-276 30 -49 c19 -30 49 -60 79 -79 49 -30 51 -30 206 -32 179 -3 226 7 280 60
68 66 73 91 73 382 0 239 -2 264 -20 305 -24 53 -60 91 -111 117 -49 24 -325
31 -385 9z m248 -431 l1 -175 -68 0 -68 0 0 175 0 175 68 0 67 0 0 -175z"/>
<path d="M1796 2104 c-409 -98 -504 -648 -152 -876 323 -209 749 20 749 402 0
219 -147 414 -353 470 -66 18 -177 20 -244 4z"/>
<path d="M4965 1836 c-247 -58 -387 -342 -280 -569 50 -106 128 -175 243 -217
54 -20 75 -22 155 -17 78 4 102 10 155 38 236 120 300 408 139 621 -87 115
-266 178 -412 144z"/>
<path d="M3340 1414 c-89 -23 -155 -61 -219 -124 -227 -223 -164 -602 123
-744 62 -31 152 -52 206 -50 102 6 174 28 255 79 240 152 277 510 73 714 -114
113 -291 164 -438 125z"/>
</g>
</svg>
